<mxGraphModel dx="0" dy="0" grid="1" gridSize="10" guides="1" tooltips="1" connect="1" arrows="1" fold="1" page="0" pageScale="1" background="none" math="0" shadow="0">
  <root>
    <mxCell id="0" />
    <mxCell id="1" parent="0" />
    <mxCell id="node4" parent="1" vertex="1" value="&lt;p style=&quot;margin:0px;margin-top:4px;text-align:center;&quot;&gt;&lt;b&gt;Board&lt;/b&gt;&lt;/p&gt;&lt;hr size=&quot;1&quot;/&gt;&lt;p style=&quot;margin:0 0 0 4px;line-height:1.6;&quot;&gt;- bno: int&lt;br/&gt;- author: String&lt;br/&gt;- content: String&lt;br/&gt;- name: String&lt;br/&gt;- boardType: int&lt;br/&gt;- cnt: int&lt;br/&gt;- title: String&lt;br/&gt;- resdate: String&lt;/p&gt;&lt;hr size=&quot;1&quot;/&gt;&lt;p style=&quot;margin:0 0 0 4px;line-height:1.6;&quot;&gt;+ getBoardType(): int&lt;br/&gt;+ getAuthor(): String&lt;br/&gt;+ getContent(): String&lt;br/&gt;+ getTitle(): String&lt;br/&gt;+ setCnt(int): void&lt;br/&gt;+ getBno(): int&lt;br/&gt;+ setBoardType(int): void&lt;br/&gt;+ getName(): String&lt;br/&gt;+ setContent(String): void&lt;br/&gt;+ getResdate(): String&lt;br/&gt;+ setName(String): void&lt;br/&gt;+ setResdate(String): void&lt;br/&gt;+ toString(): String&lt;br/&gt;+ setBno(int): void&lt;br/&gt;+ setAuthor(String): void&lt;br/&gt;+ setTitle(String): void&lt;br/&gt;+ getCnt(): int&lt;/p&gt;" style="verticalAlign=top;align=left;overflow=fill;fontSize=14;fontFamily=Helvetica;html=1;rounded=0;shadow=0;comic=0;labelBackgroundColor=none;strokeWidth=1;">
      <mxGeometry x="3" y="93" width="194" height="640" as="geometry" />
    </mxCell>
    <mxCell id="node2" parent="1" vertex="1" value="&lt;p style=&quot;margin:0px;margin-top:4px;text-align:center;&quot;&gt;&lt;b&gt;Book&lt;/b&gt;&lt;/p&gt;&lt;hr size=&quot;1&quot;/&gt;&lt;p style=&quot;margin:0 0 0 4px;line-height:1.6;&quot;&gt;- bno: int&lt;br/&gt;- price: int&lt;br/&gt;- date: String&lt;br/&gt;- title: String&lt;br/&gt;- company: String&lt;br/&gt;- author: String&lt;/p&gt;&lt;hr size=&quot;1&quot;/&gt;&lt;p style=&quot;margin:0 0 0 4px;line-height:1.6;&quot;&gt;+ setBno(int): void&lt;br/&gt;+ getBno(): int&lt;br/&gt;+ setCompany(String): void&lt;br/&gt;+ getPrice(): int&lt;br/&gt;+ getAuthor(): String&lt;br/&gt;+ getCompany(): String&lt;br/&gt;+ toString(): String&lt;br/&gt;+ getTitle(): String&lt;br/&gt;+ setAuthor(String): void&lt;br/&gt;+ setPrice(int): void&lt;br/&gt;+ setTitle(String): void&lt;br/&gt;+ getDate(): String&lt;br/&gt;+ setDate(String): void&lt;/p&gt;" style="verticalAlign=top;align=left;overflow=fill;fontSize=14;fontFamily=Helvetica;html=1;rounded=0;shadow=0;comic=0;labelBackgroundColor=none;strokeWidth=1;">
      <mxGeometry x="-235" y="93" width="203" height="496" as="geometry" />
    </mxCell>
    <mxCell id="node3" parent="1" vertex="1" value="&lt;p style=&quot;margin:0px;margin-top:4px;text-align:center;&quot;&gt;&lt;b&gt;Dat&lt;/b&gt;&lt;/p&gt;&lt;hr size=&quot;1&quot;/&gt;&lt;p style=&quot;margin:0 0 0 4px;line-height:1.6;&quot;&gt;- resdate: String&lt;br/&gt;- content: String&lt;br/&gt;- dno: int&lt;br/&gt;- par: int&lt;br/&gt;- id: String&lt;/p&gt;&lt;hr size=&quot;1&quot;/&gt;&lt;p style=&quot;margin:0 0 0 4px;line-height:1.6;&quot;&gt;+ getId(): String&lt;br/&gt;+ getContent(): String&lt;br/&gt;+ getResdate(): String&lt;br/&gt;+ setId(String): void&lt;br/&gt;+ setContent(String): void&lt;br/&gt;+ setPar(int): void&lt;br/&gt;+ setDno(int): void&lt;br/&gt;+ getDno(): int&lt;br/&gt;+ getPar(): int&lt;br/&gt;+ setResdate(String): void&lt;/p&gt;" style="verticalAlign=top;align=left;overflow=fill;fontSize=14;fontFamily=Helvetica;html=1;rounded=0;shadow=0;comic=0;labelBackgroundColor=none;strokeWidth=1;">
      <mxGeometry x="233" y="93" width="194" height="400" as="geometry" />
    </mxCell>
    <mxCell id="node5" parent="1" vertex="1" value="&lt;p style=&quot;margin:0px;margin-top:4px;text-align:center;&quot;&gt;&lt;b&gt;Event&lt;/b&gt;&lt;/p&gt;&lt;hr size=&quot;1&quot;/&gt;&lt;p style=&quot;margin:0 0 0 4px;line-height:1.6;&quot;&gt;- startdate: String&lt;br/&gt;- status: boolean&lt;br/&gt;- eno: int&lt;br/&gt;- regdate: String&lt;br/&gt;- content: String&lt;br/&gt;- img_path: String&lt;br/&gt;- title: String&lt;br/&gt;- cnt: int&lt;br/&gt;- enddate: String&lt;br/&gt;- img_name: String&lt;/p&gt;&lt;hr size=&quot;1&quot;/&gt;&lt;p style=&quot;margin:0 0 0 4px;line-height:1.6;&quot;&gt;+ setRegdate(String): void&lt;br/&gt;+ isStatus(): boolean&lt;br/&gt;+ print(): void&lt;br/&gt;+ setTitle(String): void&lt;br/&gt;+ getCnt(): int&lt;br/&gt;+ getImg_path(): String&lt;br/&gt;+ setContent(String): void&lt;br/&gt;+ setStatus(boolean): void&lt;br/&gt;+ setEnddate(String): void&lt;br/&gt;+ getContent(): String&lt;br/&gt;+ setCnt(int): void&lt;br/&gt;+ setImg_name(String): void&lt;br/&gt;+ getRegdate(): String&lt;br/&gt;+ getEnddate(): String&lt;br/&gt;+ setEno(int): void&lt;br/&gt;+ getTitle(): String&lt;br/&gt;+ getEno(): int&lt;br/&gt;+ getImg_name(): String&lt;br/&gt;+ getStartdate(): String&lt;br/&gt;+ setImg_path(String): void&lt;br/&gt;+ setStartdate(String): void&lt;/p&gt;" style="verticalAlign=top;align=left;overflow=fill;fontSize=14;fontFamily=Helvetica;html=1;rounded=0;shadow=0;comic=0;labelBackgroundColor=none;strokeWidth=1;">
      <mxGeometry x="462" y="93" width="207" height="784" as="geometry" />
    </mxCell>
    <mxCell id="node0" parent="1" vertex="1" value="&lt;p style=&quot;margin:0px;margin-top:4px;text-align:center;&quot;&gt;&lt;b&gt;Member&lt;/b&gt;&lt;/p&gt;&lt;hr size=&quot;1&quot;/&gt;&lt;p style=&quot;margin:0 0 0 4px;line-height:1.6;&quot;&gt;- email: String&lt;br/&gt;- name: String&lt;br/&gt;- regdate: String&lt;br/&gt;- tel: String&lt;br/&gt;- point: int&lt;br/&gt;- id: String&lt;br/&gt;- pw: String&lt;/p&gt;&lt;hr size=&quot;1&quot;/&gt;&lt;p style=&quot;margin:0 0 0 4px;line-height:1.6;&quot;&gt;+ getName(): String&lt;br/&gt;+ getId(): String&lt;br/&gt;+ setName(String): void&lt;br/&gt;+ setEmail(String): void&lt;br/&gt;+ setPw(String): void&lt;br/&gt;+ setRegdate(String): void&lt;br/&gt;+ setPoint(int): void&lt;br/&gt;+ getRegdate(): String&lt;br/&gt;+ getPw(): String&lt;br/&gt;+ getTel(): String&lt;br/&gt;+ setId(String): void&lt;br/&gt;+ toString(): String&lt;br/&gt;+ setTel(String): void&lt;br/&gt;+ getEmail(): String&lt;br/&gt;+ getPoint(): int&lt;/p&gt;" style="verticalAlign=top;align=left;overflow=fill;fontSize=14;fontFamily=Helvetica;html=1;rounded=0;shadow=0;comic=0;labelBackgroundColor=none;strokeWidth=1;">
      <mxGeometry x="-465" y="93" width="195" height="568" as="geometry" />
    </mxCell>
    <mxCell id="node1" parent="1" vertex="1" value="&lt;p style=&quot;margin:0px;margin-top:4px;text-align:center;&quot;&gt;&lt;b&gt;Qna&lt;/b&gt;&lt;/p&gt;&lt;hr size=&quot;1&quot;/&gt;&lt;p style=&quot;margin:0 0 0 4px;line-height:1.6;&quot;&gt;- title: String&lt;br/&gt;- author: String&lt;br/&gt;- qno: int&lt;br/&gt;- content: String&lt;br/&gt;- lev: int&lt;br/&gt;- secret: boolean&lt;br/&gt;- resdate: String&lt;br/&gt;- cnt: int&lt;br/&gt;- par: int&lt;/p&gt;&lt;hr size=&quot;1&quot;/&gt;&lt;p style=&quot;margin:0 0 0 4px;line-height:1.6;&quot;&gt;+ toString(): String&lt;br/&gt;+ getQno(): int&lt;br/&gt;+ setSecret(boolean): void&lt;br/&gt;+ setPar(int): void&lt;br/&gt;+ getResdate(): String&lt;br/&gt;+ getPar(): int&lt;br/&gt;+ getAuthor(): String&lt;br/&gt;+ setTitle(String): void&lt;br/&gt;+ getTitle(): String&lt;br/&gt;+ getContent(): String&lt;br/&gt;+ isSecret(): boolean&lt;br/&gt;+ setAuthor(String): void&lt;br/&gt;+ setLev(int): void&lt;br/&gt;+ setCnt(int): void&lt;br/&gt;+ getLev(): int&lt;br/&gt;+ setQno(int): void&lt;br/&gt;+ setContent(String): void&lt;br/&gt;+ getCnt(): int&lt;br/&gt;+ setResdate(String): void&lt;/p&gt;" style="verticalAlign=top;align=left;overflow=fill;fontSize=14;fontFamily=Helvetica;html=1;rounded=0;shadow=0;comic=0;labelBackgroundColor=none;strokeWidth=1;">
      <mxGeometry x="705" y="93" width="197" height="712" as="geometry" />
    </mxCell>
  </root>
</mxGraphModel>